<?xml version="1.0" encoding="UTF-8"?>
<svg width="44px" height="48px" viewBox="0 0 44 48" version="1.1" xmlns="http://www.w3.org/2000/svg" xmlns:xlink="http://www.w3.org/1999/xlink">
    <!-- Generator: Sketch 52.5 (67469) - http://www.bohemiancoding.com/sketch -->
    <title>Event Icon</title>
    <desc>Created with Sketch.</desc>
    <g id="Layout" stroke="none" stroke-width="1" fill="none" fill-rule="evenodd">
        <g id="1440-Home" transform="translate(-819.000000, -104.000000)" fill="#D5FFC7" fill-rule="nonzero">
            <g id="Event-Icon" transform="translate(819.000000, 104.000000)">
                <path d="M33.6,26.4 L21.6,26.4 L21.6,38.4 L33.6,38.4 L33.6,26.4 Z M31.2,0 L31.2,4.8 L12,4.8 L12,0 L7.2,0 L7.2,4.8 L4.8,4.8 C2.148,4.8 0.024,6.948 0.024,9.6 L0,43.2 C0,45.852 2.148,48 4.8,48 L38.4,48 C41.052,48 43.2,45.852 43.2,43.2 L43.2,9.6 C43.2,6.948 41.052,4.8 38.4,4.8 L36,4.8 L36,0 L31.2,0 Z M38.4,43.2 L4.8,43.2 L4.8,16.8 L38.4,16.8 L38.4,43.2 Z" id="Shape"></path>
            </g>
        </g>
    </g>
</svg>