<?xml version="1.0" encoding="UTF-8"?>
<svg width="25px" height="48px" viewBox="0 0 25 48" version="1.1" xmlns="http://www.w3.org/2000/svg" xmlns:xlink="http://www.w3.org/1999/xlink">
    <!-- Generator: Sketch 52.5 (67469) - http://www.bohemiancoding.com/sketch -->
    <title>facebook f</title>
    <desc>Created with Sketch.</desc>
    <g id="Layout" stroke="none" stroke-width="1" fill="none" fill-rule="evenodd">
        <g id="1440-Home" transform="translate(-1249.000000, -296.000000)" fill="#D5FFC7">
            <g id="Social" transform="translate(1201.000000, 0.000000)">
                <g id="facebook-f" transform="translate(48.000000, 296.000000)">
                    <path d="M24.9230769,0.346153846 L24.9230769,7.96153846 L20.3942308,7.96153846 C18.7403856,7.96153846 17.625,8.30769231 17.0480769,9 C16.4711538,9.69230769 16.1826923,10.7307692 16.1826923,12.1153846 L16.1826923,17.5673077 L24.6346154,17.5673077 L23.5096154,26.1057692 L16.1826923,26.1057692 L16.1826923,48 L7.35576923,48 L7.35576923,26.1057692 L0,26.1057692 L0,17.5673077 L7.35576923,17.5673077 L7.35576923,11.2788462 C7.35576923,7.70192308 8.35577019,4.927875 10.3557692,2.95673077 C12.3557683,0.985577885 15.0192404,0 18.3461538,0 C21.1730769,0 23.3653846,0.115384615 24.9230769,0.346153846 Z" id="Path"></path>
                </g>
            </g>
        </g>
    </g>
</svg>